<mxfile host="drawio-plugin" modified="2021-06-22T20:24:54.382Z" agent="5.0 (X11; Linux x86_64) AppleWebKit/537.36 (KHTML, like Gecko) Chrome/87.0.4280.141 Safari/537.36" etag="nHnpPa78eqK3uyJEJtMn" version="14.7.4" type="embed"><diagram id="23iRSUPoRavnBvh4doch" name="Page-1"><mxGraphModel dx="1081" dy="528" grid="1" gridSize="10" guides="1" tooltips="1" connect="1" arrows="1" fold="1" page="1" pageScale="1" pageWidth="827" pageHeight="1169" math="0" shadow="0"><root><mxCell id="0"/><mxCell id="1" parent="0"/><mxCell id="3" value="" style="shape=umlLifeline;participant=umlActor;perimeter=lifelinePerimeter;whiteSpace=wrap;html=1;container=1;collapsible=0;recursiveResize=0;verticalAlign=top;spacingTop=36;outlineConnect=0;" vertex="1" parent="1"><mxGeometry x="150" y="360" width="20" height="300" as="geometry"/></mxCell><mxCell id="6" value="" style="html=1;points=[];perimeter=orthogonalPerimeter;" vertex="1" parent="3"><mxGeometry x="5" y="60" width="10" height="210" as="geometry"/></mxCell><mxCell id="4" value=":Object" style="shape=umlLifeline;perimeter=lifelinePerimeter;whiteSpace=wrap;html=1;container=1;collapsible=0;recursiveResize=0;outlineConnect=0;" vertex="1" parent="1"><mxGeometry x="270" y="360" width="100" height="300" as="geometry"/></mxCell><mxCell id="7" value="" style="html=1;points=[];perimeter=orthogonalPerimeter;" vertex="1" parent="4"><mxGeometry x="45" y="60" width="10" height="120" as="geometry"/></mxCell><mxCell id="5" value=":Object" style="shape=umlLifeline;perimeter=lifelinePerimeter;whiteSpace=wrap;html=1;container=1;collapsible=0;recursiveResize=0;outlineConnect=0;" vertex="1" parent="1"><mxGeometry x="470" y="360" width="100" height="300" as="geometry"/></mxCell><mxCell id="8" value="" style="html=1;points=[];perimeter=orthogonalPerimeter;" vertex="1" parent="1"><mxGeometry x="515" y="545" width="10" height="80" as="geometry"/></mxCell><mxCell id="10" value="dispatch" style="html=1;verticalAlign=bottom;endArrow=block;exitX=1.067;exitY=0.078;exitDx=0;exitDy=0;exitPerimeter=0;" edge="1" parent="1" source="6" target="7"><mxGeometry width="80" relative="1" as="geometry"><mxPoint x="540" y="510" as="sourcePoint"/><mxPoint x="310" y="436" as="targetPoint"/></mxGeometry></mxCell><mxCell id="11" value="" style="html=1;points=[];perimeter=orthogonalPerimeter;" vertex="1" parent="1"><mxGeometry x="320" y="470" width="10" height="10" as="geometry"/></mxCell><mxCell id="12" value="self call" style="edgeStyle=orthogonalEdgeStyle;html=1;align=left;spacingLeft=2;endArrow=block;rounded=0;entryX=1;entryY=0;" edge="1" target="11" parent="1"><mxGeometry relative="1" as="geometry"><mxPoint x="325" y="450" as="sourcePoint"/><Array as="points"><mxPoint x="355" y="450"/></Array></mxGeometry></mxCell><mxCell id="13" value="return" style="html=1;verticalAlign=bottom;endArrow=open;dashed=1;endSize=8;exitX=-0.124;exitY=0.667;exitDx=0;exitDy=0;exitPerimeter=0;" edge="1" parent="1" source="7" target="6"><mxGeometry relative="1" as="geometry"><mxPoint x="300" y="500" as="sourcePoint"/><mxPoint x="220" y="500" as="targetPoint"/></mxGeometry></mxCell><mxCell id="14" value="dispatch" style="html=1;verticalAlign=bottom;endArrow=block;exitX=1.162;exitY=0.708;exitDx=0;exitDy=0;exitPerimeter=0;" edge="1" parent="1" source="6" target="8"><mxGeometry x="0.512" width="80" relative="1" as="geometry"><mxPoint x="175.67000000000007" y="446.38" as="sourcePoint"/><mxPoint x="460" y="569" as="targetPoint"/><mxPoint as="offset"/></mxGeometry></mxCell><mxCell id="15" value="return" style="html=1;verticalAlign=bottom;endArrow=open;dashed=1;endSize=8;exitX=0.019;exitY=0.695;exitDx=0;exitDy=0;exitPerimeter=0;" edge="1" parent="1" source="8" target="6"><mxGeometry x="-0.5135" y="-1" relative="1" as="geometry"><mxPoint x="508.76" y="600" as="sourcePoint"/><mxPoint x="360" y="600" as="targetPoint"/><mxPoint as="offset"/></mxGeometry></mxCell></root></mxGraphModel></diagram></mxfile>